<svg width="66" height="66" viewBox="0 0 66 66" fill="none" xmlns="http://www.w3.org/2000/svg">
<g filter="url(#filter0_d_2968_0)">
<circle cx="33" cy="26" r="20" fill="white"/>
</g>
<path d="M40.3929 24.2429H34.9286C34.8339 24.2429 34.7571 24.1661 34.7571 24.0714V18.6071C34.7571 17.6368 33.9704 16.85 33 16.85C32.0296 16.85 31.2429 17.6368 31.2429 18.6071V24.0714C31.2429 24.1661 31.1661 24.2429 31.0714 24.2429H25.6071C24.6368 24.2429 23.85 25.0296 23.85 26C23.85 26.9704 24.6368 27.7571 25.6071 27.7571H31.0714C31.1661 27.7571 31.2429 27.8339 31.2429 27.9286V33.3929C31.2429 34.3632 32.0296 35.15 33 35.15C33.9704 35.15 34.7571 34.3632 34.7571 33.3929V27.9286C34.7571 27.8339 34.8339 27.7571 34.9286 27.7571H40.3929C41.3632 27.7571 42.15 26.9704 42.15 26C42.15 25.0296 41.3632 24.2429 40.3929 24.2429Z" fill="#550DED" stroke="#550DED" stroke-width="0.3"/>
<defs>
<filter id="filter0_d_2968_0" x="0.428572" y="0.285715" width="65.1429" height="65.1429" filterUnits="userSpaceOnUse" color-interpolation-filters="sRGB">
<feFlood flood-opacity="0" result="BackgroundImageFix"/>
<feColorMatrix in="SourceAlpha" type="matrix" values="0 0 0 0 0 0 0 0 0 0 0 0 0 0 0 0 0 0 127 0" result="hardAlpha"/>
<feMorphology radius="4.57143" operator="erode" in="SourceAlpha" result="effect1_dropShadow_2968_0"/>
<feOffset dy="6.85714"/>
<feGaussianBlur stdDeviation="8.57143"/>
<feColorMatrix type="matrix" values="0 0 0 0 0 0 0 0 0 0 0 0 0 0 0 0 0 0 0.2 0"/>
<feBlend mode="normal" in2="BackgroundImageFix" result="effect1_dropShadow_2968_0"/>
<feBlend mode="normal" in="SourceGraphic" in2="effect1_dropShadow_2968_0" result="shape"/>
</filter>
</defs>
</svg>
